<?xml version="1.0" encoding="UTF-8" standalone="no"?>
<!-- Created with Inkscape (http://www.inkscape.org/) -->

<svg
   xmlns:dc="http://purl.org/dc/elements/1.1/"
   xmlns:cc="http://creativecommons.org/ns#"
   xmlns:rdf="http://www.w3.org/1999/02/22-rdf-syntax-ns#"
   xmlns:svg="http://www.w3.org/2000/svg"
   xmlns="http://www.w3.org/2000/svg"
   xmlns:sodipodi="http://sodipodi.sourceforge.net/DTD/sodipodi-0.dtd"
   xmlns:inkscape="http://www.inkscape.org/namespaces/inkscape"
   width="128"
   height="128"
   viewBox="0 0 33.866666 33.866668"
   version="1.1"
   id="svg8"
   inkscape:version="0.92.4 (5da689c313, 2019-01-14)"
   sodipodi:docname="icon.svg">
  <defs
     id="defs2" />
  <sodipodi:namedview
     id="base"
     pagecolor="#ffffff"
     bordercolor="#666666"
     borderopacity="1.0"
     inkscape:pageopacity="0.0"
     inkscape:pageshadow="2"
     inkscape:zoom="0.98994949"
     inkscape:cx="-76.534443"
     inkscape:cy="156.89986"
     inkscape:document-units="px"
     inkscape:current-layer="layer1"
     showgrid="false"
     units="px"
     inkscape:window-width="1920"
     inkscape:window-height="1027"
     inkscape:window-x="-8"
     inkscape:window-y="-8"
     inkscape:window-maximized="1" />
  <metadata
     id="metadata5">
    <rdf:RDF>
      <cc:Work
         rdf:about="">
        <dc:format>image/svg+xml</dc:format>
        <dc:type
           rdf:resource="http://purl.org/dc/dcmitype/StillImage" />
        <dc:title></dc:title>
      </cc:Work>
    </rdf:RDF>
  </metadata>
  <g
     inkscape:label="Layer 1"
     inkscape:groupmode="layer"
     id="layer1"
     transform="translate(0,-263.13332)">
    <circle
       style="fill:#666666;fill-opacity:1;stroke:none;stroke-width:0.06749973"
       id="path815"
       cx="16.933332"
       cy="280.06665"
       r="12.7" />
    <path
       style="fill:#cccccc;fill-opacity:1;stroke:none;stroke-width:4.85968876"
       d="M 64 32 A 64.000003 47.999999 0 0 0 59.296875 32.136719 A 47.999999 39.999998 0 0 1 104 72 A 47.999999 39.999998 0 0 1 56 112 A 47.999999 39.999998 0 0 1 8 72 A 47.999999 39.999998 0 0 1 21.767578 44.013672 A 64.000003 47.999999 0 0 0 0 80 A 64.000003 47.999999 0 0 0 64 128 A 64.000003 47.999999 0 0 0 128 80 A 64.000003 47.999999 0 0 0 64 32 z "
       transform="matrix(0.26458334,0,0,0.26458334,0,263.13332)"
       id="path819" />
    <path
       sodipodi:type="star"
       style="fill:#cccccc;fill-opacity:1;stroke:none;stroke-width:0.26458335"
       id="path840"
       sodipodi:sides="3"
       sodipodi:cx="14.268602"
       sodipodi:cy="281.5502"
       sodipodi:r1="5.4580026"
       sodipodi:r2="2.7290013"
       sodipodi:arg1="0.71801567"
       sodipodi:arg2="1.7652132"
       inkscape:flatsided="true"
       inkscape:rounded="0.16"
       inkscape:randomized="0"
       d="m 18.379093,285.14098 c -0.995104,1.13913 -8.7864718,-0.39502 -9.2754374,-1.82638 -0.4889656,-1.43135 4.7353324,-7.41179 6.2194024,-7.11958 1.48407,0.29222 4.05114,7.80682 3.056035,8.94596 z"
       inkscape:transform-center-x="0.43167246"
       inkscape:transform-center-y="-0.68902532" />
  </g>
</svg>
