<?xml version="1.0" encoding="UTF-8" standalone="no"?>
<!-- Created with Inkscape (http://www.inkscape.org/) -->

<svg
   xmlns:dc="http://purl.org/dc/elements/1.1/"
   xmlns:cc="http://creativecommons.org/ns#"
   xmlns:rdf="http://www.w3.org/1999/02/22-rdf-syntax-ns#"
   xmlns:svg="http://www.w3.org/2000/svg"
   xmlns="http://www.w3.org/2000/svg"
   xmlns:sodipodi="http://sodipodi.sourceforge.net/DTD/sodipodi-0.dtd"
   xmlns:inkscape="http://www.inkscape.org/namespaces/inkscape"
   width="32"
   height="64"
   viewBox="0 0 8.4666665 16.933334"
   version="1.1"
   id="svg8"
   sodipodi:docname="bullet01.svg"
   inkscape:version="0.92.4 (5da689c313, 2019-01-14)">
  <defs
     id="defs2" />
  <sodipodi:namedview
     id="base"
     pagecolor="#ffffff"
     bordercolor="#666666"
     borderopacity="1.0"
     inkscape:pageopacity="0.0"
     inkscape:pageshadow="2"
     inkscape:zoom="5.6"
     inkscape:cx="37.565141"
     inkscape:cy="22.232877"
     inkscape:document-units="px"
     inkscape:current-layer="layer1"
     showgrid="false"
     units="px"
     inkscape:window-width="1920"
     inkscape:window-height="1027"
     inkscape:window-x="-8"
     inkscape:window-y="-8"
     inkscape:window-maximized="1" />
  <metadata
     id="metadata5">
    <rdf:RDF>
      <cc:Work
         rdf:about="">
        <dc:format>image/svg+xml</dc:format>
        <dc:type
           rdf:resource="http://purl.org/dc/dcmitype/StillImage" />
        <dc:title />
      </cc:Work>
    </rdf:RDF>
  </metadata>
  <g
     inkscape:label="Layer 1"
     inkscape:groupmode="layer"
     id="layer1"
     transform="translate(0,-280.06665)">
    <path
       style="fill:#b3b3b3;stroke-width:2.31004286"
       d="M 16 0 C 13.235497 1.3718955e-07 2.4193608 11.56595 1.0371094 16 C 0.34598362 18.217025 -9.9703907e-08 25.108513 0 32 L 0 48 C 2.0607381e-08 54.065546 0.77470248 60.130171 2.3222656 61.677734 C 5.417392 64.772861 26.582608 64.772861 29.677734 61.677734 C 31.225298 60.130171 32 54.065546 32 48 L 32 32 C 32 25.108513 31.654016 18.217025 30.962891 16 C 29.580639 11.56595 18.764503 -1.3718955e-07 16 0 z "
       transform="matrix(0.26458334,0,0,0.26458334,0,280.06665)"
       id="path46" />
  </g>
</svg>
